<svg xmlns="http://www.w3.org/2000/svg" width="506" height="310" viewBox="0 0 506 310" version="1.1"><path d="M 185.123 0.937 C 177.575 2.865, 173.104 9.413, 174.447 16.572 C 174.959 19.297, 177.219 22.432, 183.317 28.873 C 200.944 47.494, 210.279 64.486, 217.476 91.048 C 225.031 118.932, 234.765 136.510, 252.753 154.749 C 262.018 164.145, 265.145 165.992, 271.790 165.996 C 281.402 166.003, 287.319 161.403, 292.996 149.509 C 302.680 129.217, 302.442 100.109, 292.385 74.983 C 278.687 40.759, 252.161 14.719, 220 3.926 C 212.100 1.274, 208.648 0.682, 199.500 0.406 C 193.450 0.223, 186.980 0.462, 185.123 0.937 M 147.491 23.865 C 139.623 27.439, 131.815 40.057, 128.421 54.681 C 126.387 63.443, 126.409 81.907, 128.465 92.610 C 133.977 121.293, 152.208 150.705, 175.226 168.049 C 195.281 183.161, 222.327 191.514, 239.968 188.044 C 248.988 186.270, 254.483 179.046, 252.581 171.465 C 252.229 170.063, 248.722 165.448, 244.787 161.208 C 234.174 149.774, 226.684 139.176, 220.541 126.905 C 215.447 116.730, 213.561 111.444, 206.480 87.500 C 200.531 67.385, 190.178 50.188, 174.534 34.441 C 161.963 21.787, 156.644 19.707, 147.491 23.865 M 461 83.093 C 373.953 90.593, 311.703 142.105, 285.600 228.237 C 278.987 250.059, 274.689 278.030, 277.128 283.381 C 278.745 286.930, 280.672 287.319, 292.885 286.564 C 347.748 283.169, 386.141 268.050, 416.034 238.068 C 439.330 214.704, 451.458 191.494, 462.400 149.336 C 470.128 119.559, 474.398 109.124, 483.954 96.656 C 489.518 89.397, 490.252 85.990, 486.777 83.557 C 484.313 81.831, 477.152 81.702, 461 83.093 M 13.200 165.200 C 10.258 168.142, 13 197.806, 18.075 217.940 C 22.869 236.958, 30.472 250.497, 43.136 262.565 C 56.644 275.437, 73.967 284.633, 94.645 289.908 C 113.544 294.728, 117.952 295.124, 162.500 296.002 C 214.524 297.028, 223.607 298.162, 238.639 305.510 C 252.722 312.394, 254.947 309.599, 251.475 289.381 C 244.278 247.476, 223.078 217.180, 192.335 204.870 C 171.047 196.346, 135.432 190.443, 90.500 187.990 C 62.614 186.468, 51.997 184.482, 39.284 178.406 C 35.211 176.460, 29.491 172.571, 26.150 169.479 C 20.077 163.856, 15.918 162.482, 13.200 165.200" stroke="none" fill="#000000" fill-rule="evenodd"/></svg>